<?xml version="1.0" encoding="UTF-8" standalone="no"?>
<svg
   xmlns:dc="http://purl.org/dc/elements/1.1/"
   xmlns:cc="http://creativecommons.org/ns#"
   xmlns:rdf="http://www.w3.org/1999/02/22-rdf-syntax-ns#"
   xmlns:svg="http://www.w3.org/2000/svg"
   xmlns="http://www.w3.org/2000/svg"
   xmlns:sodipodi="http://sodipodi.sourceforge.net/DTD/sodipodi-0.dtd"
   xmlns:inkscape="http://www.inkscape.org/namespaces/inkscape"
   aria-hidden="true"
   focusable="false"
   data-prefix="fas"
   data-icon="volume-up"
   role="img"
   viewBox="0 0 576 512"
   class="svg-inline--fa fa-volume-up fa-w-18"
   version="1.1"
   id="svg3725"
   sodipodi:docname="vol-min.svg"
   inkscape:version="0.92.4 (5da689c313, 2019-01-14)">
  <metadata
     id="metadata3731">
    <rdf:RDF>
      <cc:Work
         rdf:about="">
        <dc:format>image/svg+xml</dc:format>
        <dc:type
           rdf:resource="http://purl.org/dc/dcmitype/StillImage" />
        <dc:title></dc:title>
      </cc:Work>
    </rdf:RDF>
  </metadata>
  <defs
     id="defs3729" />
  <sodipodi:namedview
     pagecolor="#ffffff"
     bordercolor="#666666"
     borderopacity="1"
     objecttolerance="10"
     gridtolerance="10"
     guidetolerance="10"
     inkscape:pageopacity="0"
     inkscape:pageshadow="2"
     inkscape:window-width="1920"
     inkscape:window-height="1017"
     id="namedview3727"
     showgrid="false"
     inkscape:zoom="1.65625"
     inkscape:cx="288"
     inkscape:cy="256"
     inkscape:window-x="-8"
     inkscape:window-y="-8"
     inkscape:window-maximized="1"
     inkscape:current-layer="svg3725" />
  <path
     id="path3723"
     d="m 232.35938,64.009766 c -0.39117,-0.0089 -0.78371,-0.0083 -1.17579,0.002 -5.70289,0.149548 -11.46367,2.348437 -16.15429,7.039062 L 126.06055,160 H 24 C 10.74,160 0,170.74 0,184 v 144 c 0,13.25 10.74,24 24,24 h 102.06055 l 88.96875,88.94922 c 15.03,15.03 40.9707,4.47125 40.9707,-16.96875 V 88.019531 C 256,73.726836 244.48559,64.2867 232.35938,64.009766 Z m 276.86523,10.201172 c -0.0138,-0.0088 -0.02,0.01528 -0.0391,0.0293 0.007,0.01588 0.0149,0.031 0.0215,0.04687 0.0496,0.01174 0.0988,0.02531 0.14844,0.03711 -0.0446,-0.03649 -0.0829,-0.08286 -0.13086,-0.113281 z M 368.36133,131.64648 c -0.0407,0.097 -0.0442,0.14362 0.0254,0.0762 0.01,-0.009 0.01,-0.0103 0.0195,-0.0195 -0.0154,-0.0184 -0.0296,-0.0382 -0.0449,-0.0566 z m -41.53321,44.53125 c -8.5099,-0.0456 -16.79523,4.42047 -21.20898,12.40235 -6.39,11.61 -2.15883,26.19937 9.45117,32.60937 C 327.98031,228.27945 336,241.63 336,256 c 0,14.38 -8.01992,27.72055 -20.91992,34.81055 -11.61,6.41 -15.83922,20.99937 -9.44922,32.60937 6.43,11.66 21.04937,15.79922 32.60937,9.44922 28.23,-15.55 45.76954,-44.99891 45.76954,-76.87891 0,-31.88 -17.5393,-61.31937 -45.7793,-76.85937 -3.61875,-1.97813 -7.53415,-2.9324 -11.40235,-2.95313 z m 248.78711,65.32032 c -0.20389,1.06538 -0.40051,2.13009 -0.57226,3.04297 -0.0822,0.40717 -0.17076,0.81264 -0.25781,1.21875 0.35118,-0.0185 0.69755,-0.0266 0.99609,-0.0312 -0.0528,-1.41051 -0.0942,-2.8233 -0.16602,-4.23047 z m -21.57812,115.37109 c -0.41433,0.40452 -0.83247,0.8057 -1.24023,1.2168 -0.4091,0.41241 1.72463,-0.84125 1.26562,-1.19727 -0.009,-0.007 -0.0167,-0.0127 -0.0254,-0.0195 z" />
</svg>
